<svg id="Layer_1" data-name="Layer 1" xmlns="http://www.w3.org/2000/svg" viewBox="0 0 59.81 60"><defs><style>.cls-1{fill:#21326d;}</style></defs><title>deda_logo</title><path class="cls-1" d="M38.14,48.08A10.88,10.88,0,0,0,49,37.2V26.32A10.88,10.88,0,0,1,59.9,15.44V10A10.88,10.88,0,0,0,49,20.88V31.76A10.88,10.88,0,0,1,38.14,42.64H21.86A10.88,10.88,0,0,1,11,31.76V20.88A10.88,10.88,0,0,0,.1,10v5.44A10.88,10.88,0,0,1,11,26.32V37.2A10.88,10.88,0,0,0,21.86,48.08Z" transform="translate(-0.1 -10)"/><path class="cls-1" d="M32.71,20.87H24.58a2.71,2.71,0,0,1,2.71,2.72V69.83h5.42V23.59a2.71,2.71,0,0,1,2.71-2.72Z" transform="translate(-0.1 -10)"/><polygon class="cls-1" points="48.19 46.01 46.29 46.01 46.29 46.01 46.29 46.01 42.18 50.24 38.07 46.01 38.07 46.01 38.07 46.01 36.17 46.01 35.38 46.01 35.38 60 38.07 60 38.07 47.97 41.23 51.22 42.18 52.2 43.13 51.22 46.29 47.97 46.29 60 48.98 60 48.98 46.01 48.19 46.01"/><path class="cls-1" d="M21.48,61.05a3.14,3.14,0,0,0,.69-2,3,3,0,0,0-3-3.07H11V69.83h9.11a4.51,4.51,0,0,0,1.4-8.78Zm-2.33-3.67a1.71,1.71,0,0,1,0,3.42H13.66V57.38Zm.93,11.08H13.66V62.17h6.42a3.15,3.15,0,0,1,0,6.3Z" transform="translate(-0.1 -10)"/></svg>