<svg id="Layer_1" data-name="Layer 1" xmlns="http://www.w3.org/2000/svg" viewBox="0 0 161.53 217.82"><defs><style>.cls-1{fill:#21326d;}</style></defs><title>ink03</title><path class="cls-1" d="M156.74,201.53l.44-.63-.84-.69.74-2.85a1.38,1.38,0,0,0-1.64-.4,4.06,4.06,0,0,0-1.64.87.91.91,0,0,1-.38.19c-.55.17-1.1.34-1.66.47a5.07,5.07,0,0,0-1.71.72,1.87,1.87,0,0,1-1.07.37,2.76,2.76,0,0,0-2.18.8l-4.49.32-.32.71a4.39,4.39,0,0,1-2.27-.21,9.09,9.09,0,0,0-4.15-.72c-.81.08-1.61.2-2.42.29a5.53,5.53,0,0,0-1.15.1,4.8,4.8,0,0,1-2.18.36,3.4,3.4,0,0,0-.64.08c-.69.07-1.38.14-2.08.19a1.4,1.4,0,0,1-.45-.1,4.7,4.7,0,0,0,.18-.74,7.31,7.31,0,0,1,.68-2.56,7.39,7.39,0,0,0,.33-1.31,3.15,3.15,0,0,1-1.14-2.88l-.26-.51.16-.67a.8.8,0,0,0-.21-.15,3,3,0,0,1-1.85-1.14c0-.08-.16-.11-.22-.18a3.62,3.62,0,0,1-.7-.71,5.08,5.08,0,0,0-1.56-1.57c-.48-.34-.91-.74-1.43-1.17a4.09,4.09,0,0,1-.92-.28,25.13,25.13,0,0,1-3.29-1.91,4.35,4.35,0,0,1-1.66-2.27c-.24-.83-.39-1.69-.61-2.52-.11-.42-.16-1-.44-1.2a4.23,4.23,0,0,1-1.27-1.77,6.66,6.66,0,0,0-.57-.82c-.47-.78-.92-1.58-1.37-2.37h-.09V174c-.37-.19-.73-.4-1.1-.56a2.3,2.3,0,0,1-1-1,4.29,4.29,0,0,0-.75-1,2.88,2.88,0,0,0-1.82-.79,2,2,0,0,0-1.72.58.49.49,0,0,1-.32.16,3.91,3.91,0,0,0-1.69.75,1.77,1.77,0,0,1-.67.22l-3.12.12A9.65,9.65,0,0,1,95,169.14a2.51,2.51,0,0,1-.36-1.79,3.37,3.37,0,0,0,0-1.89l-.39-.32v-1l.51-.26A18.1,18.1,0,0,0,93,163.1c-.41-.16-.89-.09-1.36-.25v.1a.73.73,0,0,1-.71.71H90a8.26,8.26,0,0,0,.09,1A6,6,0,0,1,90,166a5.69,5.69,0,0,1-.83.06,12.79,12.79,0,0,1-1.63-.23,1.36,1.36,0,0,1-.53-.42,2.59,2.59,0,0,1-.26-.46,3.38,3.38,0,0,1,.14-.69c.73-.31,1.38,0,2,0l.22.57c.38-.37.38-.37.39-.87l-.29.08c-.25-.85-1.09-.3-1.55-.68-.27.24-.27.24-.91.36-.94.18-1.36.77-1,1.67a2.56,2.56,0,0,1-.27,2.14A13.32,13.32,0,0,1,82,172a3.45,3.45,0,0,1-1.87.87,2.2,2.2,0,0,0-1,.27,2.41,2.41,0,0,1-1.17.31,8.26,8.26,0,0,0-2.56.41c-1.09.37-2.18.76-3.29,1.08a7.52,7.52,0,0,0-2.36,1.2c-.75.55-1.58,1-2.35,1.54A10.46,10.46,0,0,0,65.8,179a7,7,0,0,0-1.07,2.63,17.61,17.61,0,0,0-.48,2,4.43,4.43,0,0,0,.17,1.09,2.93,2.93,0,0,1-.08,2,20.17,20.17,0,0,1-1.71,2.91,2.36,2.36,0,0,1-1.12.9l-.56-.11v.72a8.13,8.13,0,0,1-.81.47,3.22,3.22,0,0,0-1.27.92,1.75,1.75,0,0,1-.38.34,11.44,11.44,0,0,0-2.46,2.3c-.2.27-.43.61-.81.56l-1.38-1-.42-.56c-.33.28-.34.55-.15.81a5,5,0,0,0,.74.78c.6.49.64.6.29,1.25-.2.36-.41.71-.58,1.08a3.85,3.85,0,0,0-.27.81,3.39,3.39,0,0,1-.88,1.82,2.24,2.24,0,0,1-.79,2.48l-1.44.09H44.89a4,4,0,0,1-2.19-.57h-.6a2.64,2.64,0,0,1-1.64-.44,5.89,5.89,0,0,0-2-1.08L37,200.74l-.22-.67a6.4,6.4,0,0,0-.88.09,2.08,2.08,0,0,1-1.91-.57,5.2,5.2,0,0,0-.72-.42l-.4-.17a3.8,3.8,0,0,0-2.69-.57c-1,.1-2.11.26-3.16.28a6.51,6.51,0,0,0-3,.93l-.3.19-2,1.59a3,3,0,0,0-.45.35,6,6,0,0,1-1.95,1.56,2.22,2.22,0,0,1-.78.36c-.88.1-1.77.14-2.66.18s-2.06,0-3.09.07c-.27,0-.53.07-.79.07l-3.75.07c-1.37,0-2.74.08-4.11.15s-2.74.19-4.11.29v.87c.55,0,1.1-.12,1.65-.12.84,0,1.68.07,2.52,0,1.11,0,2.21-.14,3.31-.2H8.57l3.67-.12,4.33-.17h1.21v.12l1,.59.12.7.91.28c.41.1.82.23,1.22.37s.94.49,1.44.65a3.08,3.08,0,0,0,1.13.09q.6-.08,1.2-.21c.86-.16,1.71-.35,2.09-1.25a1.78,1.78,0,0,1,1.42-.25,8.8,8.8,0,0,0,3.64-.4,2.15,2.15,0,0,1,.71-.11,12.62,12.62,0,0,0,3.61-.53,5.69,5.69,0,0,1,3.27,0,1.9,1.9,0,0,0,2-.35l.73.19a3.76,3.76,0,0,1,0,2.39c.35.53.9,0,1.32.31l-.6.7c0,.64.58.67.9,1l.26.61a3.11,3.11,0,0,1,2.41.44,13.75,13.75,0,0,1,1.54.36A25.51,25.51,0,0,0,53.31,212a8.58,8.58,0,0,0,3.67.23l.23-.49,3.19-.26a16.49,16.49,0,0,0,2.11.13,16.72,16.72,0,0,1,3.16.27,1.43,1.43,0,0,1,1,.65c.23.34.43.7.65,1l.55.85c.55.13,1.18-.46,1.55.39l-1.26.65c-.41-.32-.77-.64-1.16-.91s-.75-.77-1.4-.64c-.3.44-1.09.48-1,1.33.1.11.23.28.38.43a5.26,5.26,0,0,0,2,1.08c1.15.37,2.33.62,3.47,1a2.43,2.43,0,0,0,1.68-.09,8.15,8.15,0,0,1,1.88-.5c1.67-.14,3.36-.19,5-.29.72-.05,1.44-.11,2.15-.23a3.4,3.4,0,0,0,1-.43c.39-.23.76-.51,1.09-.73H86c.06.16.13.38.23.59a1.15,1.15,0,0,0,.3.48,3.24,3.24,0,0,0,2.21.91c.91-.09,1.81-.24,2.71-.34a7.26,7.26,0,0,0,3-1.08l.16-.12-.17-.27c.21-.51.92-.79.68-1.47l-.7-.14.7-.82a3.31,3.31,0,0,0,.82-.16,2.48,2.48,0,0,1,2.22.07.61.61,0,0,1,.16.12l.28.66c.42.06.84.13,1.27.17.76.08,1.53.11,2.3.21a7.87,7.87,0,0,0,2.86-.12c.54-.12,1.07-.27,1.61-.38,1.06-.22,2.12-.44,3.18-.64a16.39,16.39,0,0,0,3.66-1.28c.35-.15.71-.26,1.06-.42a5.36,5.36,0,0,0,1.14-.59,6.31,6.31,0,0,1,2.41-1,2.1,2.1,0,0,1,1.36-.47H122a5.65,5.65,0,0,1,2.16.25,2.11,2.11,0,0,0,1,0,4.32,4.32,0,0,0,.78-.16,10.1,10.1,0,0,1,2.8,0c1.23.12,2.45.22,3.66.41,1,.15,2,.47,3,.61a8.78,8.78,0,0,1,2.89.77,1.13,1.13,0,0,0,.36.06,16.19,16.19,0,0,1,1.69.31,12.81,12.81,0,0,0,3.85.4,11.47,11.47,0,0,0,3.65-.79c1.68-.59,1.53-.67,1.45-2.22,0-.91-.22-1.79.65-2.44-.1-.25-.17-.44-.25-.63a6.51,6.51,0,0,1-2.59-1.29,24.19,24.19,0,0,1-2.39-1.77h.92a37.31,37.31,0,0,1,5.59-.36c.14,0,.28-.06.43-.07,1.41-.12,2.82-.28,4.24-.35,1.8-.1,3.6-.13,5.4-.2.1,0,.19-.08.28-.12C159.91,201.52,158.33,201.78,156.74,201.53ZM20,205.23c-.23,0-.53,0-.66-.36a2.72,2.72,0,0,1,1.57-.14Zm.15-1.7a3.1,3.1,0,0,1,1.39-1c-.46.93-.76,1.16-1.41,1Zm2.55-.77-.05.75h-.89c.1-.51.44-.62.92-.75Zm-.31,3.75.17-.41c1.31-.43,2.26-.4,2.7.07a2.4,2.4,0,0,1-2.89.34Zm3.14-6.08-.91.92-2,.55-.1-.17c.12-.12.22-.29.37-.34a2.85,2.85,0,0,0,1.47-1.31c.66-.16,1.16-.8,1.94-.6-.11.46-.11.46-.79,1Zm1.24.68c0-.38.25-.46.48-.5a9.78,9.78,0,0,1,3.27-.38c-.52.69-2.63,1.16-3.77.88Zm2.85,3.51a4.35,4.35,0,0,1,2.67-.12,2.22,2.22,0,0,1-2.69.12Zm2.56-2.91c.14-.43.51-.41.78-.53.9.36.9.36,1.07.74-.65-.15-1.28.2-1.87-.21Zm2.85-.45c.42-.29.78.05,1.15.08a4.72,4.72,0,0,1,1.11.26c.36.12.8.19.91.69a7.88,7.88,0,0,1-3.2-1Zm10.21,3.42-.87-.49.06-.2H46c0,.55-.56.4-.78.69Zm1.41,3.64c.25-.52.4-.55,1.08-.17Zm-.69-3.25a2.57,2.57,0,0,1,1.79-.15c-.34.55-1,.63-1.81.15Zm9-7.9.15.07-1,1.9a2.89,2.89,0,0,1,.89-2Zm-6,12.1-.48.13-.18-.28c.19-.38.72-.3,1.59.3Zm5.22.26c-.83.22-1.29-.65-2-.67l-.52-.86-.76-.25-.1-.68-1.53-.16A15.47,15.47,0,0,0,51.57,205l-.6-.5.45-.14.17-.47c.08.07.17.1.18.15a11.18,11.18,0,0,0,.32,1.39,16.79,16.79,0,0,0,1,2.15,5,5,0,0,0,.83,1c.19.24.47.47.31.95Zm-.06-4c-.62-.25-.62-.28-.11-1.31.43.42.45.7.15,1.32Zm1.24-4.12c-.67-.52-.17-1.4-.61-1.95l.53-1a.39.39,0,0,1,.21.51v0a1.75,1.75,0,0,0,.19,1.51c.29.5.21.65-.27.92Zm10.24,13.93.42-.56a2.43,2.43,0,0,1,1.9,1.07,2.53,2.53,0,0,1-2.28-.5Zm52.88-24.55a27.82,27.82,0,0,1,3.31,1.2c.39.23.4.23.6.77a1.22,1.22,0,0,1-1,.15,20.34,20.34,0,0,0-4.74-.2,1.39,1.39,0,0,1-1.26-.55,2,2,0,0,1-.13-.59l1.72-.65,1.06.44Zm-1.33,10,.47.89-.94.1c-.11-.43.1-.66.51-.95Zm-.25-1.9c.51.33.52.36.22,1-.52-.49-.52-.49-.16-1Zm.51,1.46.74-.5.21-.47,1,.26c.11.86-.83.75-1,1.44Zm2.07-3.16c-.3-.43-.3-.43.25-1,.46.49.41.66-.21,1Zm.47,2.17c-.47.17-.8-.05-1.15-.44l.5-.57c.72.31.81.45.66,1.05Zm-.62-5.49a2.25,2.25,0,0,1-1.36,0c.18-.62.5-.67,1.5-.24,0,.09,0,.23-.1.28Zm-.82,3.53.44.59c-.33.42-.6.77-1.1.8-.4-.51-.34-.66.7-1.35Zm1.22,2.72c.22-.14.49-.31.77,0-.3.41-.77.45-1.16.77-.13-.44.2-.57.43-.73Zm-25.43,8.33c.14-.18.31-.17.75-.09-.13.75-.75,1.21-1.07,1.87l-.81.08a4.57,4.57,0,0,1,1.17-1.82ZM93.43,201l.77,1.05c.15.5-.13.86-.38,1.24a1.53,1.53,0,0,1-.45-2.12l.1-.13Zm1.21,3c-.42-.32-.09-.6,0-1,.68.43.66.6,0,1.06Zm.42-4.61c.1.51-.32.87-.33,1.49-.27-.26-.43-.38-.56-.54a8.55,8.55,0,0,1-.7-1,3.47,3.47,0,0,1-.25-.77l1.45-.55.45.47-.79.89ZM93.3,197c-.09-1.24-.17-2.46-.27-3.76.73.65,1.2,1.52,2.19,1.74.2.57.38,1.11.59,1.7A3.89,3.89,0,0,1,93.3,197Zm3.8-6.69a12.51,12.51,0,0,1-2.29,0,3,3,0,0,1-.68-1.46,2.24,2.24,0,0,1,2.39-.34c-.62.32-1.41.16-2,.7.69.87,1.84.37,2.58,1.12Zm-.66.79L95.1,192c-.11-.34-.18-.57-.25-.77.64-.5.8-.51,1.59-.07Zm-2,.13v.85l-.75.81c-.38-.65.1-1.19.1-1.82Zm.89,2a1.9,1.9,0,0,1,1.92-1.88,1.76,1.76,0,0,1,.6.1c.33.69.67,1.39,1,2.06a1.2,1.2,0,0,1-1.69.19,1.14,1.14,0,0,1-.19-.19l-.49.31Zm-9.22.06a5.94,5.94,0,0,0,.12.74L85,194.4c-1,.26-2,.53-3.07.76a10.51,10.51,0,0,1-1.77.27,6.88,6.88,0,0,1-3.67-.45,12,12,0,0,0-1.44-.45,5.72,5.72,0,0,1-.67-.41q1.53-3.12,3-6a17.4,17.4,0,0,1,4.31-.51l.21.86c.3-1.14.69-1.36,2.21-1.2-.19.63-.41,1.23-.55,1.85-.24,1.1-.45,2.21-.63,3.32a2.08,2.08,0,0,0,.14.7l.16-.09a11.21,11.21,0,0,1,.86-4.43c.07-.23.16-.45.21-.69a1.14,1.14,0,0,1,1.21-1,11,11,0,0,0,1.13-.1,2,2,0,0,1-.09,1.32c-.18,1.21-.42,2.41-.54,3.63a6.47,6.47,0,0,0,.14,1.52Zm3.77,8.51a.29.29,0,0,1,0,.13,20.91,20.91,0,0,0,.23,3.06h-.64c.16-1.11.28-2.15.4-3.18Zm0-3.44.14.07a1.93,1.93,0,0,1-.11.52,2.31,2.31,0,0,0,0,1.75c.15.33.32.73,0,1.09.08-.4-.24-.53-.52-.71.07-.79.12-1.58.21-2.37,0-.11.18-.22.27-.34Zm.23-2.51c.12,1.12,0,1.62-.33,1.87a2.48,2.48,0,0,1,.32-1.86ZM90,208.34a.46.46,0,0,1-.15.36,1,1,0,0,1-1,.16.54.54,0,0,1,.15-.37A1.78,1.78,0,0,1,90,208.34Zm-1.15-1.25a1.19,1.19,0,0,1-.61.14c-1.66,0-3.31-.13-5-.19H82.13a6.18,6.18,0,0,1-.62-.12,2.43,2.43,0,0,1,2.13-.43,1.7,1.7,0,0,1,1.74-.29,1.25,1.25,0,0,0,1.29.45c.74-.06,1.48,0,2.32,0C89,206.85,89,207,88.82,207.09Zm-1.19-11.4h-.54c-.56.28-.62,1-1.28,1.2-.52-.31-.45-1.23-1.36-1.27-.09.1-.22.26-.36.4a9.44,9.44,0,0,1-1,1,2.93,2.93,0,0,1-.81.3c-.15-.5-.25-.86-.36-1.23,2-1.11,4.12-1.1,6.31-1.31Zm1.49-.69a1,1,0,0,1-.86,1C88.31,195.45,88.43,195.31,89.12,195Zm-4,2c-.37.27-.62.09-1-.14.14-.22.26-.42.44-.73Zm-3.54.2a1.14,1.14,0,0,1-1.27.12,2,2,0,0,1,1.15-.78,3.23,3.23,0,0,1,.16.63Zm-15-4.34a2.34,2.34,0,0,1,2.21.47l-.58.42c.21.61-.11,1.1-.44,1.68a2.65,2.65,0,0,1,0-1.8c-.13-.63-.91-.28-1.14-.8Zm.56,1.65v.94l-.7-.23.57-.75ZM70,181.7l-.22.58.11.09c.3-.32.58-.67.9-1s.55-.72,1.13-.79a2,2,0,0,1-.82,1.17,2.24,2.24,0,0,0-.85,1,.21.21,0,0,1-.08.11l-1.78,2a2.42,2.42,0,0,1-.42.29L67.8,185c0-.69.84-.94,1-1.61-.82,0-1,1-1.72,1.09A4.75,4.75,0,0,1,70,181.7ZM67,183.33a1.24,1.24,0,0,1,.06-1c.11-.34.22-.68.36-1.13a13.92,13.92,0,0,1,2.28-1.77.61.61,0,0,1-.28.7,5.47,5.47,0,0,0-.83.68,2.89,2.89,0,0,0-.86,1.54.89.89,0,0,1-.69,1ZM71.65,180a7.93,7.93,0,0,1,.95-1.48,5.29,5.29,0,0,1,1.33-.8c.33-.17.74-.18,1-.5,0-.06.21,0,.49,0L74,178.45a1.68,1.68,0,0,1-1.5,1.16c-.24,0-.48.28-.72.43Zm-3.52,7a18.84,18.84,0,0,1,2,1.15,1.34,1.34,0,0,1-.08.58,15.66,15.66,0,0,0-1.7,3.49,1.12,1.12,0,0,1-.18.2l-1.53-.51a8,8,0,0,1,.7-2.44Zm.89-.52a2.08,2.08,0,0,1,1.72.61l-.14.34c-.8.06-1.12-.57-1.58-1Zm.16,7.55.53,2,.83.18.78-.92h.13v1.47a8.4,8.4,0,0,1-3.36-.93A7.21,7.21,0,0,1,69.18,194Zm.64.29H71a1.82,1.82,0,0,1-1,1.47,10.12,10.12,0,0,0-.15-1.51Zm-1.21-1.81a3.08,3.08,0,0,1,.16-.79c.47-.87,1-1.72,1.46-2.57a3.58,3.58,0,0,1,.54-.56l2.65,1.84a14.65,14.65,0,0,1-1,3.24Zm5.85-4.71c0,.86-.78,1.4-.69,2.24h-.24L71,187.86l.38-.74Zm-2.7-1.29a5.19,5.19,0,0,1,3.47-.34c-.23.41-.43.76-.66,1.15-.95-.25-2-.08-2.81-.85Zm.15,8.38.38.17c.48-.44.48-.44.9-.05l-1.11,1.76a5,5,0,0,1-.17-1.92Zm1.41.9c.13.45.23.8.35,1.25h-.93c-.06-.56.23-.85.58-1.29ZM73,193.63a56.13,56.13,0,0,1,2-5.76h1.68a1,1,0,0,1-.08,1c-.61,1.24-1.21,2.49-1.83,3.73-.22.45-.47.89-.68,1.29a.7.7,0,0,1-1-.09A1,1,0,0,1,73,193.63Zm3.06,2c.34.43.67.61,1.18.31.26-.15.68,0,1,0,.15.47-.12.61-.42.76l-.55-.13c-.79,0-1.22.7-1.91.41,0-.58.41-.88.64-1.37Zm-1.71,1.26A1.46,1.46,0,0,1,74.4,195l1,.33a2.42,2.42,0,0,1-1.1,1.51Zm11.4-10.4c-.28,0-.57,0-.88.08l-.28-.55-.5.71-1.78.14H82a21.77,21.77,0,0,1-5.15.53,12.13,12.13,0,0,1-1.48-.11c.16-.32.21-.57.37-.7a3.26,3.26,0,0,1,1.64-1c1-.14,2-.34,2.94-.51l.52.59.84-.64a4,4,0,0,1,1.88-.06A2,2,0,0,0,84,185l3.59-.22c1.78-.11,3.55-.21,5.33-.29a7,7,0,0,0,1.93-.1.71.71,0,0,1,.29,0c1.53.36,3-.12,4.51-.25h.73l.49.79c-.23.37-.54.3-.82.3-1.32,0-2.63.1-4,.15a41.28,41.28,0,0,0-4.44.49,20.69,20.69,0,0,1-3.43.26,14.62,14.62,0,0,0-2.47.3Zm15.29.65a3,3,0,0,1-1.84.21,1.39,1.39,0,0,1,1.8-.23Zm.71-7.58a3.41,3.41,0,0,1,2.13-1.41,7.71,7.71,0,0,1-.66,1.6,8.09,8.09,0,0,1-1.27,1.14l.47.11a1.32,1.32,0,0,1-.69,1.21.55.55,0,0,1-.78,0l0,0a6.63,6.63,0,0,1,.37-1.3,5.22,5.22,0,0,1,.81-1Zm8.08,17.52a2.12,2.12,0,0,1,.75-1.48.87.87,0,0,1,1,.22c-.72.34-1,1-1.77,1.24Zm2.57-.15c.26.32.21.55,0,.75s-.56.8-1.29.62c.42-.53.6-1.18,1.27-1.39Zm-2.58,2.34c-.22-.31-.53-.52-.3-1l.7-.21a.85.85,0,0,1-.4,1.13h0Zm-10.43-5.81a8.08,8.08,0,0,1-.89-1.79,3.44,3.44,0,0,1,1.84.33c.58.17,1.24.27,1.57.8l1.55.3c-.38.66-2.23,1.18-3.64,1.06a3.52,3.52,0,0,1,.1-.61Zm5.23,3.43-.66-.78.45-.65h1.71c-.54.54-.79,1.12-1.52,1.41Zm2.43-1.24c.42.32.42.32.36,1-.56.33-.84,1-1.5,1.18a3.22,3.22,0,0,1,1.09-2.2Zm-.37,3.6-.1.66c-.74-.47-.77-.52-.69-1.08ZM103,197.54c-.29.24-.32.75-.8.79a.39.39,0,0,1-.21-.51.41.41,0,0,1,.07-.11c.28-.34.39-.9,1.1-.93Zm-.58-2.95a3.25,3.25,0,0,1,1.81-.94l.27.4A3,3,0,0,1,102.39,194.59Zm1.8-1.8a6.34,6.34,0,0,1-1.21-2.47,10,10,0,0,1,3.23.76l-.63.58.07.14a4.82,4.82,0,0,1,2.71-.76l.57.06c-.14.3-.14.3-1.42.79-.56.21-1.12.44-1.69.62S104.81,193.11,104.19,192.79Zm4.09-2.47a2.73,2.73,0,0,1-1.62.2c-1.2-.23-2.41-.44-3.61-.66a1.75,1.75,0,0,1-.29-.18c.14-.1.23-.21.32-.22a30.05,30.05,0,0,1,5.11-.19l.54.63c-.17.16-.29.35-.45.42ZM103,192.41l-4.71-1.49c.15-.15.24-.31.36-.34a6.88,6.88,0,0,1,3.71-.18,2.77,2.77,0,0,1,.64,2Zm-.57,3.38c.07.15.21.31.19.43-.14.63-.68.94-1.14,1.35-.41-.09-.65-.61-1.23-.45a4.61,4.61,0,0,0,.22.51,1.25,1.25,0,0,1-.12,1.65c-.26.31-.56.59-.87.92a2.09,2.09,0,0,1-.28-.24,1.92,1.92,0,0,1-.18-.31c.16-.32.33-.63.53-1a2,2,0,0,1-1.73-.78v-1l.49.32A18.21,18.21,0,0,1,102.47,195.79Zm-4.09,4.47.58.2c.28.45,0,.94-.81,1.28l.38-1-.08-.05c-.17.22-.33.45-.49.68h-.15a2.5,2.5,0,0,0-.06-.65ZM98.1,203l.54.57a.88.88,0,0,1-.62,1l-.46-.7ZM98,206l.75-.12.1.16-.51.82A.63.63,0,0,1,98,206Zm.63-3.63.78-1.17.64.49-.59,1.14Zm1.27-1.77c.6-.52.74-1.39,1.44-1.82.41.41.43.51.14.9s-.78,1-1.18,1.52c-.36-.06-.3-.34-.41-.6Zm.88,1.89c.17-.32.29-.56.42-.82.47.19.62.47.56.81l-1.23,1.44-.44-.54c0-.53.46-.69.68-.89Zm.92-1.5.75-.72c.59.44.56.63-.19,1.43-.35-.06-.54-.24-.57-.7Zm.93-1.89-.13-.09.52-1.47.54-.17c.24.62.22.76-.13,1.07s-.54.44-.81.66Zm1.6-.72a.72.72,0,0,1,.14,1,.67.67,0,0,1-.38.26l-.67.29c-.2-.58.12-1.14.9-1.56Zm1,1.07.78,1-.71.84-.75-.7c-.12-.59.19-.87.63-1.14Zm1.93,1c.61,0,.59.49.7.85l-1.06,1.4-.89-.63c.09-.89.94-1,1.2-1.64Zm.33,3.87c0,.32-.13.54-.48.55s-.59,0-.57-.49c.56-.38.56-.38,1-.08Zm.43,2,.28.38a2.53,2.53,0,0,1-1.52.51c.22-.64.76-.67,1.19-.94Zm-.52-3,.35-.56c.65.4.65.4.48,1Zm.83-2.65-.45-.83,1-1c.56.7.4,1.26-.6,1.82ZM106.89,199l-.42-.62a2.52,2.52,0,0,1,1.27-1.28l.43.87C108,198.64,107.46,198.82,106.89,199Zm.35-4.28v-.18a1.27,1.27,0,0,1,.45-.19,2.36,2.36,0,0,1,1.7.3,4.48,4.48,0,0,1-2.15.1Zm0-1.21a1.22,1.22,0,0,1-1.28-.46,18.6,18.6,0,0,1,4.16-1.49c.39.35.77.51.82,1a6.14,6.14,0,0,1-1,.4,14.45,14.45,0,0,1-2.65.58Zm3.52-1.94a3.39,3.39,0,0,1,2.42-.52,1.9,1.9,0,0,0,.18.52c-1.21,1-2.12,1-2.55,0Zm-.82-1c-.13,0-.21-.21-.39-.4.35-.19.61-.35.88-.48s.56-.24.85-.36c.67.23.68.23.9.77a4,4,0,0,1-2.21.46Zm.74-2.19h-2.24a3,3,0,0,1-.87-1.53l.81-.76a1,1,0,0,1,1.19.5,7.6,7.6,0,0,0,.67.83c.28.25.56.49.49,1Zm-3,0c-1.07.06-2,.12-2.91.14s-1.86,0-2.8,0a.82.82,0,0,1-.17-1,2.94,2.94,0,0,1,.83-.24c1.41-.07,2.82-.1,4.22-.14a1.68,1.68,0,0,1,.32.09ZM102,184.82c-.7-.24-.7-.24-.82-.87a6.51,6.51,0,0,1,3-.32c-.07.45-.07.45-2.08,1.19Zm3.19,1.58a2.59,2.59,0,0,1-2.3.09,2.58,2.58,0,0,1,2.4-.09Zm1-.77h-1.85l-.1-.15.55-.32h1.46Zm-.94-3.74,1.12-1.59c-.28.08-.46.08-.54.17a6.57,6.57,0,0,0-.73,1,1.48,1.48,0,0,1-1.29.9,4.11,4.11,0,0,1-.7-.13,2,2,0,0,1,1-1.09c.38-.26.77-.5,1.13-.78s.6-.75,1.15-.86c.43.57.43.76,0,2a1.32,1.32,0,0,1-1.07.38Zm-4.07,5.84.24.7c-.76.34-1.45,0-2.13.09s-1.33.15-2,.23l-.13-.47a19.45,19.45,0,0,1,4.09-.55Zm-4.86,7.65a9.21,9.21,0,0,0,3.14-.18c.3-.08.3-.08.71.26-1.23.73-2.65.54-3.89,1.24-.17-.43-.31-.82-.48-1.27a3.92,3.92,0,0,1,.59-.05Zm-.45,3.45,1-.58,1,.88c.1.75,0,1-.44,1.24l-1.65-1.29Zm2.66,8.93.79-.21v.4c-.58.62-1.17,1.21-1.77,1.8a1.58,1.58,0,0,1-.36.2c-.13-.58.25-1.14,1.41-2.19Zm1.29.44a2.89,2.89,0,0,1,1.47-1.08,3.44,3.44,0,0,0,.85-.55l.57.24A3.88,3.88,0,0,1,99,209.19c.35-.36.61-.68.89-1Zm2.26-4.33c-.25-.31-.19-.54.29-.89l.57.8c-.44.35-.59.36-.79.09Zm.71-1.52c0-.4.31-.76,1-1.08l.1-.48a.87.87,0,0,1,.85.89.76.76,0,0,1,0,.21l-.49.23-.6,1.09a.88.88,0,0,1-.76-.86Zm1.49,3.07-.59.42c-.3-.29-.58-.5-.56-.9.7-.21.87-.17,1.22.48Zm.31.6h1c-.14.32-.18.59-.33.7-.36.23-.7.61-1.23.45,0-.54.3-.81.63-1.17Zm.77-2.59-.59.51h-.63c0-.6,0-.6.69-.62l.32-.94.91.62a1.38,1.38,0,0,1-.08.56Zm3.72,4.5a15.13,15.13,0,0,1-2.93.86,2.05,2.05,0,0,1-.55-.1,4.57,4.57,0,0,1,3.55-.76Zm-.35-10.59c-.2-.23-.55-.31-.47-.78l.55.29c.48-.26.12-.64.2-.93.34-.36.34-.36.76-.2a2.84,2.84,0,0,1-1,1.62Zm.94,3.52a3.54,3.54,0,0,1,.41-.26c.54.54.36,1.12-.44,1.54-.42-.3-.42-.3-.48-.84a6.77,6.77,0,0,0,.58-.44Zm.68-.61.84-.82.47.53a1.5,1.5,0,0,1-.87,1,3.74,3.74,0,0,0-.37-.71Zm2.1.75a.36.36,0,0,1,.09.5l-.09.09c-.24.22-.41.62-1,.43a2.83,2.83,0,0,1,1.07-1Zm-.31-1.5-.45-.5,1.25-1.07c.35.65.21.92-.73,1.57Zm-.71-6.43,2.47-1,.24.5a3.08,3.08,0,0,1-2.64.5Zm1.89,1.78c.44-.53,1,0,1.5-.39.06.35.09.55.14.85-.55-.14-1.11,0-1.57-.46Zm.72,4.78c0,.52-.42.75-.81,1,0-.63.53-.74.88-1Zm.56-3.25c.18-.23.42-.37.83,0l-.62.64a.4.4,0,0,1-.14-.64Zm3.08-8.66-1,.5-.72-1a1.29,1.29,0,0,1,1.77.46l0,0Zm-1.08,2.71a3.91,3.91,0,0,1-1.79.7l-.24-.26c.11-.46,1.27-.7,2.1-.44Zm-2.76-3.6c.38.63,1.11.92,1.06,1.76h-1.5l-.38-.79Zm-2.38-1.45,1.13.16v.18l-.78.3c.47.41,1,0,1.46.35.07.31-.09.56-.41.78l-.55-.31c-.11,1-.11,1-.51,1.32-.26-.6-.91-1-.93-1.77l.57-.34Zm-.37-2.55c.2.55-.21.65-.46.87l-.85,1c-.4-.21-.32-.44-.22-.67a2.26,2.26,0,0,1,1.6-1.2ZM108.62,179c.59.48.59.64.08,1C108.44,179.57,108.44,179.57,108.62,179Zm.91,3.75v.52c-.17.3-.41.57-.6.87a1,1,0,0,1-1.06.6H107a2.41,2.41,0,0,1-.57-.25,23,23,0,0,1,3.09-1.76Zm-1.46-2.25-.81.52c-.33-.7-.07-1.37.7-1.94.24.5.24.57.11,1.4Zm-.22-5.34c-.51-.08-.55-.49-.74-.84l-.5.45a6.58,6.58,0,0,1-.87-.35,9.53,9.53,0,0,1-1.11-.77.63.63,0,0,1-.29-.77c.5-.34,1,.18,1.49.12a4.34,4.34,0,0,1,1.46.35ZM105.11,171c.65.2,1.34.13,1.9.72l.36.84c-.7-.13-1.25-.25-1.8-.33s-1.12-.09-1.76-.13Zm-3.41,2.34a1.56,1.56,0,0,1,1.3-.1c.51.25,1.11.41,1.35,1.15a2.35,2.35,0,0,1-1.74-.43l-1,0c0-.31.06-.5.09-.69Zm-1.44,3.21.85.21.59-.6a1,1,0,0,1-.38,1.36,1,1,0,0,1-.62.12l-.46.8c-.16-.37-.28-.63-.43-.95.16-.33.32-.64.45-1Zm1.07,2.9a1.11,1.11,0,0,1-.68,1c-.78.59-1.56,1.2-2.32,1.82a2.73,2.73,0,0,0-.4.56c.69.57,1.5,0,2.29.36-.2.16-.3.29-.41.31-.74.11-1.48.2-2.22.28-.23,0-.5.07-.58-.32l.4-.46-.52-.77c-.5,1.05-1.6.78-2.46,1.17-.13-.57.41-.87.48-1.45a7.94,7.94,0,0,0-1.5,2l-3.11.17-.42-.74.51-.93c-.8.31-1,1.16-1.68,1.66a12.18,12.18,0,0,1-3.46.22,1.33,1.33,0,0,1,.32-1.33c.57-.61,1.09-1.28,1.66-1.9a7.75,7.75,0,0,1,1-.9c.11-.09.29-.09.59-.17l-1.23,1.45.08.1a.92.92,0,0,0,.31-.16,12.55,12.55,0,0,0,1.07-1,1.67,1.67,0,0,1,1.43-.53h1.1l.26.42a5.11,5.11,0,0,1,1.07-.54,1.65,1.65,0,0,1,1.27,0c-.33.78-1.28,1-1.54,1.74a8.34,8.34,0,0,0,2-1.49,4.58,4.58,0,0,1,2.17-1.2l-.63,1.49.1.05,1.35-2.05.76.48.82-.61c-.19,1-.62,1.85-.9,2.9ZM92,178.36l-.48-.45a2.42,2.42,0,0,1-1.85.63c0-.51.14-.67.83-1.22l1.28-.11.23.44c.47-.18.88-.66,1.5-.24C93.22,178.23,92.46,178.08,92,178.36Zm1.57.12a17.85,17.85,0,0,1,1.89-.85.86.86,0,0,1,1.06.35c-.29.63-.89.74-1.43.88s-1.19.63-1.89.37a.62.62,0,0,1,.35-.75Zm-.78.49c-.57.7-1.23.44-1.89.41a1.77,1.77,0,0,1,1.87-.38Zm5.31-2a1.25,1.25,0,0,1,1-1.34A2.26,2.26,0,0,1,98.07,177Zm-.41-1.86c0-.06.07-.11.16-.25l.68.32c-.21.48-.33.92-1,1.15.09-.47.12-.83.16-1.18Zm-3.61-5.9a18.67,18.67,0,0,0,3,3.34c-.49.61-.87.64-1.24.15s-.73-1.08-1.07-1.63a12.37,12.37,0,0,1-.65-1.11,1.42,1.42,0,0,1,0-.71Zm-.8,2.19-1.36.72c0-.38.47-.93,1.27-1.58,0,.43.06.65.09.9Zm-1.78-7.72,1.44.64L93,165a5.46,5.46,0,0,1-1.9.78c.08-.73-.2-1.43.4-2Zm-.25,2.69c.56-.25,1.13-.47,1.86-.78v.85c-.5.14-1,0-1.29.53l-.9.19a.57.57,0,0,1,.29-.74h0ZM85.16,169a3.83,3.83,0,0,1-.66,2.25l-1.84.81Zm.2,4.07c-.07.56-.1,1-.18,1.43s-.26.46-.84.4A2.62,2.62,0,0,1,85.36,173.07Zm-2.57.49a2.24,2.24,0,0,0,1.92-1.19L85,172a2.9,2.9,0,0,1-3.33,2.39l-.25,0a1.76,1.76,0,0,1,1.4-.78Zm-1.43,2.89a10.75,10.75,0,0,1,1-1.33c.16-.16.53-.11.9-.16-.16.37-.27.63-.37.89s-.15.5-.26.85l-1.44.27a3.16,3.16,0,0,1,.17-.52ZM79,177.57h2c0,.13,0,.21-.1.26-.31.36-.63.71-1,1.12l-.44-.49-.85,1.5a1.29,1.29,0,0,0-1.25.66,8.69,8.69,0,0,1-2.09,1.73c-.41.28-.91.43-1.31.7a3.71,3.71,0,0,0-.87.94c.79-.11,1.22-.89,2.13-1.13-.39.78-1.06,1.17-1.34,2a3.54,3.54,0,0,0,1.18-1l3-3c.65-.59,1.42-1,2.11-1.6a2.91,2.91,0,0,0,.76-.88,2.26,2.26,0,0,1,1.43-1c0,.72-.51.91-1,1v.34c.23.17,1.18-.46,1.75-1.12.17.12.35.23.52.36l.51.42-.58.86.09.08,1.17-1c-.14-1-1.25-1.27-1.34-2.3l.39-.51,1.64-.48c.46-.7.46-1.53,1-2a16.76,16.76,0,0,0,.36-4.58,2.36,2.36,0,0,1,.26-.93c-.06-.36-.45-.69-.08-1.17.48-.32.92.11,1.42.18a2.27,2.27,0,0,1,1.54.09c.23.65-.25,1.56.69,1.95.08.24.16.47.23.7l-.27.7c.59,0,.8-.5,1.16-.72a9.36,9.36,0,0,1,1.07-.7,2.85,2.85,0,0,1-1.27,1.62c-.58.41-1.17.8-1.82,1.25a.86.86,0,0,0,1.1-.18,2.39,2.39,0,0,1,1.38-.64c-.32,1.06-1.4,1.43-1.94,2.26a15.16,15.16,0,0,0,3.11-.89c.2.59-.58.87-.39,1.46l.58-.26c0,.62-.3.84-1.14.76l-.39.5c.11,0,.18.1.23.08l1.58-.51.44.58c-.15.33-.26.6-.41.94.88.12.78-.9,1.44-.92l.25.46h.68c.41.69-.35,1-.45,1.46-.88.47-1.22.45-1.9-.11l-5.08.39.35.6L87.26,179l-.4-.36c0-.6.65-.92.52-1.54-.76-.25-1.28.22-1.89.58.12.46.23.91.37,1.46l-.22.62.4.31c-.14.88-1.08,1.17-1.44,2.08A19,19,0,0,1,86,180.9c.45-.32.71-1,1.5-.84a1.08,1.08,0,0,1-.11.36l-3.58,4H82.57l.3-.57-.09-.53c-.2-.13-.77.36-1.5,1.28l-4.35.46A7,7,0,0,1,78.4,183l-.09-.11a4.93,4.93,0,0,0-.49.42L76.36,185c-.11.12-.23.3-.37.32-.72.14-1.46.25-2.19.33a3.36,3.36,0,0,1-1-.05c-.45,0-.89.06-1.34.07H69.38a2.18,2.18,0,0,1-.61-.2.76.76,0,0,1,.21-.86c1.11-1.13,2.14-2.34,3.18-3.53.39-.45.87-.82,1.35-1.27h.78l-1.06,1.87c-.61.28-1,1-1.7,1.47a9.57,9.57,0,0,0-1.75,1.79h.63l.74-.79.38.42a23.56,23.56,0,0,0,2.92-3.07c.11-.08.29-.17.45-.28a2.51,2.51,0,0,1,.71-.47,3.38,3.38,0,0,0,1.89-1.55A5.86,5.86,0,0,1,79,177.57Zm-1.85-1c.22-.67.35-.74.9-.46a3.82,3.82,0,0,1-2.37,2.13,1.59,1.59,0,0,1,.58-1.19l.82-.6ZM68,179a9.2,9.2,0,0,1,2-1.45,23.5,23.5,0,0,0,2.46-1.47,10.42,10.42,0,0,1,2.83-1.21,9.45,9.45,0,0,1,3-.22c-.2.72-.72.9-1.25,1.09l-.79-.55-.81.4A2.54,2.54,0,0,1,74,176a1.24,1.24,0,0,0-.68.18c-1.14.73-2.29,1.46-3.4,2.24-.35.25-.56.7-.89,1-.53.47-1.11.89-1.8,1.44A2.65,2.65,0,0,1,68,179Zm-.66-.5-.91,1.36-.33.16h-.14c-.07-.67.37-1.2,1.34-1.53Zm-1.94,9.92a4.18,4.18,0,0,0,.08-1,1.28,1.28,0,0,1,1.16-1.36l.5.21c.63.32.71.63.47,1.29-.38,1.06-.71,2.14-1.08,3.2a9,9,0,0,1-.48,1l-1.43-.51a3.69,3.69,0,0,1,0-.47c.25-.78.52-1.57.74-2.37Zm.43,6.39c-.44-.16-.45-.2-.27-1.35,0,.45.58.81.23,1.34Zm-1-.49a1,1,0,0,1-.83-1l.38-.29c.5.11.67.63.43,1.28Zm-.11-5.46a4.07,4.07,0,0,1-.5,2c-.49.29-.76-.06-1.16-.25.29-.85,1.18-1.13,1.64-1.81Zm-8.41,21.77c.68-.44.91-.42,1.28,0a1.24,1.24,0,0,1-1.3,0Zm2.53-3.28a.92.92,0,0,1-1-.41c0-.4.08-.79.12-1.27a2.53,2.53,0,0,1,.86,1.67Zm-.24-5.51a1.71,1.71,0,0,1,1.41.8,2.16,2.16,0,0,1-1.43-.81Zm-.78,6.45c.56,0,.8.42,1.15.67-.78.11-.9,0-1.17-.68Zm1.26-4.73a3.85,3.85,0,0,1,1.52,1.31A1.36,1.36,0,0,1,59,203.72c0-.05,0-.11,0-.17Zm4.7,6.44c-.64.28-1.14-.14-1.67-.29-1.43-.42-1.35-1.72-1.59-2.84.92,1.06,2.21,1.63,3.34,2.6ZM63,208.17c-.57-.5-1.12-1-1.67-1.56a2.19,2.19,0,0,1-.27-.5,6.7,6.7,0,0,1,2.65,1c.09.43.19.89.3,1.37a1,1,0,0,1-1-.33Zm-1-4.38c.5.1,1,.24,1.15.77a1.8,1.8,0,0,1-1.11-.79Zm2,6.37c.08-.26.14-.44.21-.64a.64.64,0,0,1,.72.55c-.2.2-.47.14-.88.07Zm-1.77-7.62a12.4,12.4,0,0,1-1.49-.88,13.28,13.28,0,0,1-3.11-2.42l-.89-1.1-.16-.78-.45-.36a6.44,6.44,0,0,1,2.13-2.66c.32-.21.6-.48.91-.72a1.66,1.66,0,0,1,2.36.11.69.69,0,0,1,.11.13c.06.07.1.16.19.28a1,1,0,0,1,1.18.14,13.65,13.65,0,0,0,3.1,1.67c1,.36,2,.65,2.92,1a16.7,16.7,0,0,0,3.89.92,11.54,11.54,0,0,0,3.42.18,9.26,9.26,0,0,1,1.29,0c1.3-.05,2.59-.09,3.89-.17s2.68-.18,4-.3c.59-.06,1.18-.19,1.76-.3L89,197c0,.16.08.24.06.3a26,26,0,0,0-.49,4.21c-.09.89-.16,1.78-.27,2.66a4.69,4.69,0,0,1-.24.89l-2,.25-3.14.38a2.29,2.29,0,0,1-.64,0c-1.26-.15-2.51-.32-3.77-.49-.07,0-.15-.06-.21,0-1.26.34-2.5-.29-3.77,0a15.37,15.37,0,0,1-2.79.22c-.74,0-1.49-.07-2.23-.11h-.07a10.49,10.49,0,0,1-4.35-1.39c-.88-.57-1.84-.92-2.76-1.4Zm14.33,6.13c.4-.35.78-.17,1.26,0-.52.44-.8.43-1.21,0ZM75.91,211v-.7l.81-.35C77,210.78,76.2,210.62,75.91,211Zm.76-3.66a9.08,9.08,0,0,1-3.48-.77c-.33-.14-.68-.24-1-.37a.74.74,0,0,1-.39-.35,9.8,9.8,0,0,1,1.32-.21H78a11.61,11.61,0,0,1,2,.29c.2,0,.4.12.6.19v.21a14.94,14.94,0,0,1-3.93,1Zm-4.19.38H73l1.27.08c.26,0,.48.07.51.44-1,.59-2.09.38-2.34-.48Zm.21,3c-.59.38-.92,0-1.28-.18a1.19,1.19,0,0,1,1.28.24Zm2.68-1c0,.48-.11.59-.68.58a6.73,6.73,0,0,1-1.4-.24c-.08,0-.11-.22-.25-.52Zm-1,1.14c.3-.21.75-.14,1.22.27l-1.18.22c-.29-.16-.23-.35,0-.45Zm-4.53-1.11A3.89,3.89,0,0,1,66.49,208a8.32,8.32,0,0,1,3.34,1.75Zm-4.21.17c-.2-.54.3-.69.43-1.16.38.32.68.59,1,.89a1.28,1.28,0,0,1-1.44.35Zm1.37.61c1-.5,1.66.11,2.54.3a2.79,2.79,0,0,1-2.57-.26Zm5.16,5-1.1-.41c.2-.11.35-.26.44-.24.49.14,1.07-.22,1.68.28Zm-1.63-1.69a1.08,1.08,0,0,1,1.51-.11c-.31.57-.75.61-1.52.11Zm3.8,1.4c.48-.42.48-.42,1.1-.37-.28.49-.72.36-1.11.37Zm-.13-2.19c-.86-.05-1.72-.15-2.58-.21a10.34,10.34,0,0,1-2.13-.44v-.16c.08,0,.16-.12.23-.12,3.15-.13,7.2.06,7.94.37.13.36-.13.38-.37.44a9,9,0,0,1-3.1.12Zm3.46,2.37-1.43-.21a2.54,2.54,0,0,1,2.47-.66Zm-.34-4.63c-.12-.41,0-.69.26-.77a14.12,14.12,0,0,1,2.5-.38l-.12.6c.24.23.65-.13.78.4a7.11,7.11,0,0,1-3.43.15Zm4.17,2.4-1.34-.48.81-.43,2,.18c-.4.7-1.06.54-1.48.73Zm1.53-2.7.18.52-1.09.17.41-.59c-.38-.29-1,.4-1.29-.32.58-.73,1.7-.84,3-.58-.2.65-.85.48-1.26.8Zm2.27,1.78a.79.79,0,0,1,.86-.3c.48.1.94.25,1.43.38,0,.33-.29.26-.48.27-1.34.11-1.34.1-1.82-.35Zm1.5,3.2c.11-.56.14-.58.79-.55,0,.48-.29.65-.8.55Zm3-5L84,211.1c.17-.29.21-.47.32-.53a5.2,5.2,0,0,1,1-.43c.44-.11.9-.13,1.35-.21a18.24,18.24,0,0,1,2.86.1,3.15,3.15,0,0,1,.73.25,2.18,2.18,0,0,1-.47.21ZM90.3,193c-.54-.6-.51-1.33-.79-1.93s0-1.27-.39-1.92a1.24,1.24,0,0,0-.15,1.19c.16.75.35,1.5.52,2.25a3.85,3.85,0,0,1,.08.47,1.19,1.19,0,0,1-1.08.54c-.66-.07-1.25.65-1.91.14-.5-1.22-.34-3.79.45-6.84a3.92,3.92,0,0,1,.69-.2q.93-.12,1.86-.18c1.42-.08,2.8-.37,4.2-.59a12.75,12.75,0,0,1,1.51-.09c.89,0,1.78-.09,2.67-.11a3.1,3.1,0,0,1,.6.15,2.31,2.31,0,0,1-1.53.77,1.73,1.73,0,0,0-1.38.64,2.66,2.66,0,0,1-.72.48c-.46,0-1,.18-1.38-.1l-.87,1.2.79.24a1.21,1.21,0,0,1,.46,1.3c-.76.25-1,.94-1.3,1.65Zm1.52,6,.69-.39v3c0,.09-.09.19-.18.34-.79-.83-.36-1.87-.49-2.92Zm.18-6,.51.28V197a.81.81,0,0,1-.22.07A1.12,1.12,0,0,1,92,197a1,1,0,0,1,.26-1.15c-.08-.87-.17-1.76-.27-2.76Zm-.19,11.83c0-.37.06-.74.09-1.11a1.36,1.36,0,0,1,.33,1.32c-.26.21-.4.1-.4-.13ZM92,215.27l1-.2c.26-.06.37-.47.73-.3a1.17,1.17,0,0,1-1.51.68l-.2-.1Zm1.48-3.43c.4-.45.94-.5,1.94-.15a3.41,3.41,0,0,1-1.92.23ZM95.25,210c.25-1,.44-1.19,1-1.19a.93.93,0,0,1-.54,1.21.83.83,0,0,1-.44.06Zm.42-7.54c-.75-.79-.33-1.57,0-2.44a1.7,1.7,0,0,1,.9,2.14l.66-.25c.23.58.08.83-.6,1l-.37-.5Zm3.57,10.25a.9.9,0,0,0-.09-.3l1.39-.41c.13.26.23.44.33.63l.53-.3c.08.36.16.66.24,1Zm3.29-2.16c-1.37.81-3,.76-4.44,1.11a2.24,2.24,0,0,1-1.8-.55A23,23,0,0,1,99.94,210l.43.54,1.09-.85,1.21-.32.59.36.91-.49,1.22.08c-.21.27-.32.4-.48.59.81.17,1.43-.62,2.23-.35a4,4,0,0,1-2.79.91,2.73,2.73,0,0,1,.16-.55l-.7.21-.29.57c-.36.32-.64.07-1-.05Zm6.23,2.11-5,1-.06-.18a5.53,5.53,0,0,1,.79-.34c1.25-.3,2.5-.6,3.76-.86a2.75,2.75,0,0,1,.81,0v.15a1.64,1.64,0,0,1-.28.31Zm0-3.4c0-.26.14-.33.33-.36,1.26-.21,2.51-.42,3.76-.61a.52.52,0,0,1,.63.33,9,9,0,0,1-4.66.72Zm5-4.14c-.78.24-1.55.49-2.34.7-.55.15-1.12.24-1.69.34a3.53,3.53,0,0,1-.65,0,4.26,4.26,0,0,1,2-1.58,1.42,1.42,0,0,1,.88.15c.3.11.56.27.92,0L113,204l.76-.35.12.1-.39,1,.5.31s-.08.12-.13.14Zm-1.34-2.3,1.06-.94.81.63a2.54,2.54,0,0,1-1.8.39Zm2.28-2.09c.43-.39.87-.76,1.32-1.15.69.55.7.66.23,1.29l-.64.06c-.06.48,0,1-.67,1.27l-.5-.36a.91.91,0,0,1,.33-1Zm0,4.19c0-.59.15-.75,1.25-1.27.28,0,.65,0,.78.51Zm3.34,2.64-.68-.74,1.27-.07.1.25Zm-.42-1.79c0-.12.07-.28.13-.3.88-.29,1.77-.57,2.66-.84a.86.86,0,0,1,.32,0,6.06,6.06,0,0,1-3,1.22ZM121,196l.68.33a1.8,1.8,0,0,1,0,1.6c-.52-.23-.6-.76-.8-1.18C120.76,196.56,120.89,196.31,121,196Zm.31,7.12c.15-.5.3-.57,1-.48a.88.88,0,0,1-1,.45Zm1.18-8.31c.52.12.71.38.65.82-.19.24-.38.26-.58.08a.84.84,0,0,1-.09-.93Zm.48,5.88c-.35-.71-.35-.71.16-1.18l.46.4Zm.56-7.49a3.18,3.18,0,0,0-1-1.21,1.63,1.63,0,0,1-.23-.35c.67-.08.9.49,1.34.67a1.89,1.89,0,0,1,1.16,1c-.58.37-1.09.37-1.29-.14Zm6.43,9.34a2.6,2.6,0,0,1-2.35-.07,3.79,3.79,0,0,1,2.33,0ZM126.46,207a1,1,0,0,1,1.29-.59,1.15,1.15,0,0,1,.33.21Zm1.9-1.19a4.9,4.9,0,0,1,1.91-.88.93.93,0,0,1,.95.07c-1,1-2.12,1.38-2.88.78Zm4.12-4.38a13.62,13.62,0,0,1,3.24-.4c.06,0,.12.17.22.32-1,.18-1.95.34-2.87.47-.26,0-.57.09-.61-.42ZM134.9,205c0-.29.1-.58.15-.9a16.14,16.14,0,0,1,4.95-.35,2.5,2.5,0,0,1,1.57.59v.16l-3.43.09H135.6l.44.35a2.52,2.52,0,0,1-1.16,0Zm5.61.65a1.67,1.67,0,0,1-1.45.15c.42-.5.91-.33,1.43-.18Zm-2.25,1.69H137c.4-.53.76-.52,1.27,0Zm4,3.73a23,23,0,0,1-6.59-1c.13-.4.42-.4.67-.39,1.87.06,3.74.12,5.61.2a4,4,0,0,1,.88.31Zm1-3-.24-.79c-1-.38-1.9.16-2.93,0l-.5-.58a16.5,16.5,0,0,1,3.44-.15,2.76,2.76,0,0,1,.77.33V207c.16.38.33.76.51,1.16-.44.29-.74,0-1.07-.15Zm-.13-4.8.11-.11a4.13,4.13,0,0,1,1.37,1.26c-.18.06-.25.11-.31.1a2,2,0,0,1-.34-.12l-.09-.45Zm3.79,2.53a3.52,3.52,0,0,1,.83,1.67,3,3,0,0,1-1.51-1.77.43.43,0,0,1,.61,0l.05.06Zm-3.2,4.81a1.51,1.51,0,0,1,1-.31c.48,0,1,0,1.43,0a2.74,2.74,0,0,1-2.45.32Zm.9-1.45c.46-.33.46-.33,1.18.52-.55-.18-1-.15-1.2-.56Zm.83-3.7c.2.43,0,.59-.35.69l-.59-.48a.79.79,0,0,1,.92-.25Zm-2.8-3.74a1.38,1.38,0,0,1,.33-.2c.83-.12,1.67-.24,2.5-.34.25,0,.48,0,.47.42a6.55,6.55,0,0,1-3.32.08Zm9.48,0c.19-.64,1.21-.82,2.06-.32Zm3.76-2.41a.6.6,0,0,1-.82.26h0c-.13-.69,0-.84,1-1.21.25.34,0,.68-.19.91Z" transform="translate(0)"/><path class="cls-1" d="M72.52,63.82A12.37,12.37,0,0,1,73,70.61a18.09,18.09,0,0,1-1,2.75,12,12,0,0,0-.83,2.4C71,77.49,71,79.24,70.86,81a6,6,0,0,0,2.62,5.11,6.26,6.26,0,0,1,1,1.12c.46.56.87,1.14,1.32,1.7.27.33.62.62.34,1.14-1,.3-2.11-.65-3.33,0a5.52,5.52,0,0,0,.33,1.27,5.69,5.69,0,0,0,.92,1.21c1,1.13,2.1,2.24,3.14,3.36.31.33.7.64.33,1.32-.55-.29-1.06-.57-1.58-.82a1.32,1.32,0,0,0-1.6.08,4.28,4.28,0,0,0,1,4.42c.81.92,1.57,1.9,2.33,2.87a3.23,3.23,0,0,1,.31.58l-.55.48-1.32-.5c-.62.57-.39,1,0,1.47.67.77,1.31,1.56,1.91,2.38a7,7,0,0,1,1.34,4.68,20,20,0,0,0,.17,2.67A2.92,2.92,0,0,0,81,117.85a5.8,5.8,0,0,1,1.24,1.08A10.59,10.59,0,0,1,85,125.77a4.61,4.61,0,0,0,1.21,3.52,8.23,8.23,0,0,1,2.11,4.38c1.5,4,.87,7.15,0,10.37l.92.22c0,.46.07.88.07,1.3v7.15c-.07,3-.29,5.95-.3,8.93,0,1.05-.08,2.1-.14,3.15h1.6a1.26,1.26,0,0,1,.54.13c-.08-1.36-.16-2.75-.2-4.15,0-1.79.06-3.58-.09-5.36a22.92,22.92,0,0,1,.63-7.19A38.91,38.91,0,0,1,93,141.68a9,9,0,0,0,.23-2.26c.13-1,.31-2,.44-3,.15-1.17,1-2.07,1.31-3.14a48.75,48.75,0,0,0,1.37-5.18c.39-1.89,1-3.58,2.73-4.67.09-.06.1-.22.18-.41l-1-.14a5.39,5.39,0,0,1,.16-.8,7.62,7.62,0,0,0,.61-3.23,4.24,4.24,0,0,1,.15-1,12.2,12.2,0,0,1,2-4.25c1-1.54.86-3-.46-4l-1.26.52c-.12-1.37,0-1.58,1.36-2,.11.22.23.44.32.63l2.15-2.49c.29-1,.58-2.1.94-3.18s.82-2.23,1.26-3.34a20,20,0,0,1,1.08-2.57,11.64,11.64,0,0,0,1.33-3.7,5.73,5.73,0,0,1,.37-1.22,37.13,37.13,0,0,0,2.29-8,27.59,27.59,0,0,1,2.33-7.13c.76-1.66,1.41-3.37,2-5.09a6.12,6.12,0,0,0,.32-3.2h-2.11c0-.61.11-1.11.1-1.61a9.58,9.58,0,0,0-.15-2,25.22,25.22,0,0,0-.87-2.93,10.68,10.68,0,0,0-1.07-2.42,12,12,0,0,1-2-7.74c.13-1.82.15-3.65.15-5.47a2.88,2.88,0,0,0-.73-2.11c-1.37-.07-1.4,1.35-2.19,1.93a1.27,1.27,0,0,1-.24-.33,6.44,6.44,0,0,1-.13-.88c-.32-3.6-1.41-6.82-4.32-9.21a2.38,2.38,0,0,1-.71-2,19.54,19.54,0,0,1,.48-4.94,10.17,10.17,0,0,0,.19-2.52c0-.27-.24-.55-.54-1.17l-1.63,2.29-.24-.25-1.29-.8a11.14,11.14,0,0,1,.13,2,1.12,1.12,0,0,1-1.1,1.14h-.1c-.38-1.45-.8-2.86-1.12-4.3-.23-1-.26-2-.52-3-.35-1.39-.86-2.74-1.27-4.12A48.28,48.28,0,0,1,92.3,9a3.26,3.26,0,0,1,.07-.7,4.82,4.82,0,0,1,.71,1.48c.45,1.46,1,2.9,1.3,4.39.51,2.48,1,5,1.6,7.43a4.66,4.66,0,0,1,.07,2,2.51,2.51,0,0,0,1.22,2.72,3.1,3.1,0,0,0-.3-1.59,5.77,5.77,0,0,1-.28-1.36A14.94,14.94,0,0,0,96,18.1c-.24-.72-.41-1.47-.6-2.21a54.62,54.62,0,0,0-1.57-5.77,15.42,15.42,0,0,1-1.27-6.7A9.69,9.69,0,0,0,92,0c-1.19.47-.18,1.58-.85,2.11L88.57,3.76a3.07,3.07,0,0,0,.07,1,3.47,3.47,0,0,1,.08,2.61q-.94,3.51-2,7A6.88,6.88,0,0,0,86.91,19a4.64,4.64,0,0,1,.23,2.73,8.64,8.64,0,0,0-.2,2.91,20,20,0,0,1,0,3.94,3.17,3.17,0,0,1-.26.86l-.4-.46c-.18.33-.35.66-.5.92-1.25.65-1.25.65-1.56,1.07a20.87,20.87,0,0,1-.37,3.25,32.54,32.54,0,0,1-1.35,3.56,4,4,0,0,1-.58.77L79.26,38c-.92.44-.85,1.19-.7,1.91a5.47,5.47,0,0,1-.38,3.36c-.35.78-.61,1.59-.94,2.38-.65,1.55-1.06,3.23-2.55,4.4q-.21,4-.44,8.08c-1.4,0-2.59-1.08-4,0a9,9,0,0,0,.34,1.36C71.23,61,72,62.36,72.52,63.82ZM114,69.91c.37,1.63-.85,4.87-2.27,5.7.22-1.87,0-3.55.4-5.25Zm-2.23-1.25c-.15-1.59-.31-3.18-.46-4.77a5.12,5.12,0,0,1,.42,4.77ZM75.42,85.92A28.57,28.57,0,0,1,73,83.71a3.49,3.49,0,0,1-.94-3,13.59,13.59,0,0,1,.75-3.08c.69-1.51.71-3.14,1.13-4.69a1.13,1.13,0,0,1,.12-.21c.52,4.52,2.06,8.85,2,13.57A4.78,4.78,0,0,1,75.42,85.92Zm0,6.45c.44-.67,1-.56,1.7-.45.43,1.13.9,2.32,1.36,3.52l-.23.15a8.39,8.39,0,0,1-2.78-3.22Zm2.08,10.14c-.37-.45-1-.79-.64-1.57,1.62.34,3.54,2.37,3.51,4l-1.76-2.38ZM79,100.28l.83-.56a7.67,7.67,0,0,1,.86.94c.81,1.18,1.58,2.39,2.37,3.59a10.17,10.17,0,0,1,1,2.55c-.3-.08-.47-.07-.5-.14a24.19,24.19,0,0,0-3.7-5.12c-.24-.35-.47-.75-.81-1.26Zm.34,8.17a7.2,7.2,0,0,1-1.63-2.35,1.54,1.54,0,0,1,1.75.76,1.11,1.11,0,0,1,0,1.57l0,0Zm2.1,7.18a8.94,8.94,0,0,0,.08,1.47c-1.07-.56-1.14-.81-.76-2.39-.2-.61-.81-1.2-.19-2.08a21.14,21.14,0,0,1,3.14,4.58c-1.15-.21-1.34-1.28-2.22-1.58Zm7.8,16.6h-.18c-.85-1.35-1.75-2.68-2.53-4.07a3.6,3.6,0,0,1-.4-1.7,8.85,8.85,0,0,0-.79-3.58c-.47-1-.91-2-1.35-3a3.53,3.53,0,0,1,0-.65c.4.4.66.63.89.88l2.81,3.09A4.29,4.29,0,0,1,89,125.65c.1,1.14.29,2.27.36,3.41s0,2.12,0,3.17Zm-3.51-12.56.2-.29L88.32,121c.07.54.12,1,.2,1.7-1.42-.83-1.73-2.24-2.73-3Zm3.53-6.33c-.28-.47-.52-1-.84-1.43-1.72-2.42-1.41-1.55-.82-4.89l.46-.32.58-.41a13.45,13.45,0,0,1,.67,7Zm1.44-38.26A24.85,24.85,0,0,1,91,78.84c-.31,3.13-.63,6.26-.94,9.39l-.21,2.35h-.28c-.52-2.7.18-13.32,1.2-15.5ZM89.6,48.23c.08-.54.11-1.09.14-1.64a3,3,0,0,1,1.91-2.7c0,4.33-.64,8.58-1,12.85h-.26a5.11,5.11,0,0,1-.18-.75c-.07-1.1-.12-2.2-.19-3.3a2.61,2.61,0,0,0-.14-1A6,6,0,0,1,89.6,48.23Zm-.55-29.45c-.34-1.2.15-3.76,1.2-4.49-.08,2.68-.15,5.36-.23,8.16C89.67,21.13,89.38,20,89.05,18.78Zm4.51,43.87a19.72,19.72,0,0,1-2.5,4C90.84,65.45,91.82,63.89,93.56,62.65Zm-3.4,64.71a4.62,4.62,0,0,1-.15-.74l-.3-5.41h.41c.14,2.09.37,4.18.41,6.39C90.29,127.44,90.17,127.41,90.16,127.36Zm2.17,8.42c-.17-1.65-.19-3.14-.23-4.6L95,127.9C95.2,129.86,93.74,134.16,92.33,135.78Zm-.13-6a2.45,2.45,0,0,1,.77-2.53c.62-.55,1.2-1.14,1.79-1.72h.61c0,1.2-1.17,2.8-3.17,4.29Zm3.9-5.56c-.45.41-.88.85-1.31,1.28l-.73-.14a2.4,2.4,0,0,1,2.43-2.2c.25.53-.06.84-.39,1.1ZM100,111.13a2.19,2.19,0,0,1,.16-.16,1.33,1.33,0,0,1,.34-.1,3.23,3.23,0,0,1-2,4.09c-.2,1.29-.44,2.58-.56,3.88a2.46,2.46,0,0,1-1,2,8.44,8.44,0,0,0-1.77,1.81,12.17,12.17,0,0,1-1.25,1c.93-3.79,1.8-7.3,2.7-11a6.63,6.63,0,0,1,3.38-1.48Zm-3.22.32a2.68,2.68,0,0,1,1.5-2.12c.59,1.25.27,1.74-1.5,2.16ZM102,106c-1.35.8-2.89,1.68-4.4,2.62A5.28,5.28,0,0,0,95.25,113a14.56,14.56,0,0,1-.56,3c-.64,2.33-1.21,4.68-1.85,7-.29,1-.69,2.06-1,3.08h-.28a4.83,4.83,0,0,1-.21-.93c0-1.62,0-3.23.1-4.84a5.53,5.53,0,0,1,.62-2.06,38.85,38.85,0,0,0,1.8-4.9,46.22,46.22,0,0,1,2.48-5.85,8.83,8.83,0,0,1,2.24-2.59c1-.8,1.72-1.85,3-2.23.61-.18,1.06-.9,1.59-1.38l.26.16c-.47,1.45-.94,3-1.47,4.62Zm5.65-16.61c-.71,1.51-2.52,1.72-3.82,2.47,0,1.49,1.48.83,2,1.7a4.1,4.1,0,0,1-.74,2.39,22.63,22.63,0,0,1-2.23,3.4q-1.43,1.58-3,3c-.09.09-.24.14-.29.25-.74,1.44-2.18,2.24-3.14,3.48a8.29,8.29,0,0,0-1.14,1.68c-.83,1.86-1.62,3.73-2.36,5.63-.44,1.1-.7,2.26-1.15,3.35a25,25,0,0,1-1.27,2.47h-.2V118c.17-1.77.35-3.54.52-5.32a4.82,4.82,0,0,0,0-.76c-.1-1.48-.28-3-.28-4.45a14,14,0,0,1,.44-2.65l1.18.43.14-1.5a9.08,9.08,0,0,1,1.64-2.15c1.43-1,2.09-2.59,3-3.94s1.8-2.86,2.71-4.3a10.43,10.43,0,0,1,.75-1c1.53-2,3.08-3.93,4.72-6,.16-2.21,2.22-3,3.69-4.53.46,1.29-.34,2.06-.4,3.14.57,1.49-.1,3-.77,4.47Zm-.81-41.7c.21-.51.42-1,.64-1.52.05-.1.2-.14.51-.35.35,2.07-.14,3.93-.07,5.88a3.22,3.22,0,0,1-1.08-4ZM105.44,50a1.52,1.52,0,0,1,1.19,1.44c.19,1.17.33,2.36.5,3.61a2.64,2.64,0,0,1,1.22,2.05,2.28,2.28,0,0,0,.26.84,16.66,16.66,0,0,1,1.59,5.74c.34,2,.45,4,.6,6.07a9.92,9.92,0,0,1-.2,1.8,10.78,10.78,0,0,1-.22,5.11,23,23,0,0,0-.4,3.08,13.3,13.3,0,0,0-1.23,1c-1.08,1-2.11,2.08-3.2,3.08C104.3,85,103,86,101.74,87.19c-1,1-1.74,2.08-2.69,3s-2.18,2-3.7,3.36a8.57,8.57,0,0,1-2.71,3c-.7.82-1,2.47-2.41,3.47A3,3,0,0,1,90,99.3c0-2.25-.15-4.52.6-6.71a3.17,3.17,0,0,0,0-.87c0-1.31,0-2.64.13-3.94a6.09,6.09,0,0,1,.64-1.59h0c.39-1,.74-2.06,1.17-3.07s.94-2,1.48-3.09c-.75.4-.91.6-1.48,1.85-.33.72-.64,1.45-1,2.19a.71.71,0,0,1-.42-1,35,35,0,0,0,.46-7.37,2.56,2.56,0,0,1,.62-2.23c.15.4.27.68.41,1a1.48,1.48,0,0,0,.6-1.72,2.3,2.3,0,0,1,.47-2.15c.09.36.17.65.26,1,.19-.15.4-.23.48-.38l4.7-8.89c.49-.94.91-1.92,1.42-2.85.73-1.33,1.52-2.64,2.27-4,.2-.37.37-.76.55-1.11-.06-.54-.12-1-.21-1.85l2.11,1.58.23-.17a3.4,3.4,0,0,0-.16-.77c-.21-.42-.53-.78-.72-1.2C104.27,51.09,104.48,50.59,105.44,50Zm-5.3-.1c.12.5.2.8.27,1.07L99,52.51a4.38,4.38,0,0,1,1.17-2.62Zm-.3-5.84,1.45.19V46c-.67-.69-1.71-.69-1.45-2Zm.44,13.45A6.91,6.91,0,0,1,99,60.2q-1.5,2.23-3,4.53l-1.11,1.66-.29-.24a57.89,57.89,0,0,1,5.65-8.65Zm-1.42-28.1,1,.45c.31,1.59-.68,2.74-1.09,4.11L100,32.9a14.72,14.72,0,0,0,0,2.1,14.33,14.33,0,0,0,.59,1.93c3,1.72,3.94,4.47,3.92,7.85A5.52,5.52,0,0,1,103,42.93c-1.08-1.82-2.08-3.71-3.29-5.43-1-1.36-2-2.58-2.23-4.32,0-.31-.33-.59-.54-.94C97.05,30.88,98,30.24,98.86,29.41Zm-4.65-5.88,1.09,5.22A7.28,7.28,0,0,1,94.21,23.53Zm-2.84-6.79c.18.2.34.29.36.42.22,1.46.41,2.93.61,4.41.16,1.17.32,2.35.5,3.52.15,1,.32,2,.48,3,1.58,1.31,1.66,3.12,1.79,5.07l.77.11c1.43,2.16,2.91,4.38,4.38,6.61a3.22,3.22,0,0,1,.57,2.48l-.79.44a22.59,22.59,0,0,0-1.68,2.09c-.91,1.48-1.71,3-2.58,4.53-1.15,2-2.32,3.94-3.5,5.91a5.77,5.77,0,0,1-.61.7c-.45-1.06.08-1.94.1-2.81s.13-1.95.21-2.92.18-1.86.25-2.79.07-2,.18-2.93.3-1.83.5-3a17.87,17.87,0,0,1,.07-4.9,22.6,22.6,0,0,0-.17-3.29,26.94,26.94,0,0,0-.47-4v4.69a12.6,12.6,0,0,1-.14,2.53A29.39,29.39,0,0,0,92,41.3a3.29,3.29,0,0,1-1.36,2.61,3.68,3.68,0,0,1-.86.31c0-1.06-.07-1.91,0-2.74.26-2.87.62-5.74.84-8.62a7,7,0,0,0-.37-2.61,3.68,3.68,0,0,1,.09-2.69l.46,1.68a3.73,3.73,0,0,0,.06-3,3.85,3.85,0,0,1-.3-1.46c.14-2.5.34-5,.52-7.5A3.32,3.32,0,0,1,91.37,16.74ZM87.79,13.3c.52-2,1.11-4,1.62-6a6.29,6.29,0,0,0,.12-1.5c0-.47-.09-.93-.07-1.4a1,1,0,0,1,1-1c.11.25.33.51.32.75a10.92,10.92,0,0,1-.32,3.27,60.44,60.44,0,0,0-2.71,9.79,2.13,2.13,0,0,1-.27.46A11.92,11.92,0,0,1,87.79,13.3Zm-3,25,1.3-.6c.43-1.49.92-3.11,1.36-4.73A6.68,6.68,0,0,1,89.1,30.1c.09.42.17.68.2.94.38,3.46-.13,6.88-.38,10.31-.1,1.4-.22,2.8-.33,4.2-.07.84-.15,1-1.13,1.6-1-2.11-2.07-4.1-3-6.12-.49-.83-.36-1.19.31-2.69ZM88,67.56a3,3,0,0,1,.58-3.73C89.12,65.47,89,66.61,88,67.56Zm0,3.94c-.41-.9,0-1.46.71-2.2C88.78,70.3,88.81,71,88,71.5ZM88.1,60a2.12,2.12,0,0,1-.38,2.69A2.54,2.54,0,0,1,88.1,60ZM86.42,49.25c-.91-.21-1-.5-.75-1.74C86.43,48,86.7,48.5,86.42,49.25ZM80.8,45.64c.11-.1.3-.11.64-.22.41,1.36,1.9,2.06,1.74,3.56l-.27.18-2.35-3C80.66,45.92,80.69,45.74,80.8,45.64ZM78,48.56a3.86,3.86,0,0,1,.9-2.24c.75,1,1.36,1.89,2.08,2.71a19.31,19.31,0,0,1,3,4.57c.68,1.42,1.46,2.78,2.12,4.21A9.93,9.93,0,0,1,87.13,63a10.77,10.77,0,0,1-.87,2.44c.09.35.21.76.33,1.2a5.22,5.22,0,0,0,0,3.36,7.72,7.72,0,0,1-.11,5c1,.81.91,2,1,3.13.14,1.36.27,2.71.46,4a24.46,24.46,0,0,1,0,6.62,15,15,0,0,1-.5,2l1.19.54c.05.92.07,1.85.13,2.77s.18,1.68.25,2.52V98.1c0,1.41-.09,2.82,0,4.21a3.48,3.48,0,0,1-1.49,3.53,2.11,2.11,0,0,0-.39.4,11.68,11.68,0,0,1-.16,1.19L85.91,107c-.82-1.48-1.61-2.93-2.42-4.37a23.53,23.53,0,0,1-2.19-4.41L83,97.63l-1.38-.43a11.1,11.1,0,0,1-1.84-5.6,1.68,1.68,0,0,0-.13-.62c-.85-2.54-.57-5.12-.32-7.7V82c.06-1.48.06-3,.2-4.44a4.49,4.49,0,0,0-.09-1.86,5.64,5.64,0,0,1-.2-2c.18-2.29.44-4.56.68-7l.47-.27-.13-.36c-.26-.93-.58-1.85-.77-2.8-.4-2-.63-4-1.13-6A25.18,25.18,0,0,1,78,48.56ZM76.65,51c.13,2.38.38,4.75-.55,7.19C75.05,56.4,75.35,52.38,76.65,51Zm1,18.6a36.2,36.2,0,0,0-1.79-3.51,3.34,3.34,0,0,1-.41-3c.55-1.61,1-3.26,1.44-4.89a2.94,2.94,0,0,1,.5-1,37.37,37.37,0,0,1,1,16.62l-1.6-1.55-.16.11A4.65,4.65,0,0,0,77,73a5.91,5.91,0,0,1,1.4,3.88,31,31,0,0,1,0,4.31,38.92,38.92,0,0,0,0,4.83,5.83,5.83,0,0,1-.46,3A5.76,5.76,0,0,1,77,86.26c-.4-2.77-.8-5.54-1.16-8.31-.4-3-.76-6-1.11-9-.08-.72,0-.73.89-1.1l1.79,2.72c.51-.26.39-.65.24-1Zm-2.55-9c-.09,1-.19,1.94-.29,2.9A1.06,1.06,0,0,1,73.39,63l0-.09a10.75,10.75,0,0,1-1.12-3.21,2.5,2.5,0,0,1,2.84.89Z" transform="translate(0)"/><path class="cls-1" d="M110.88,63.62c.27.28-1.86,2.77-4,5.26l-4.42,5-4.91,4.56c-2.42,2.22-4.85,4.42-5.14,4.16S94,79.67,96.1,77.09c1-1.3,2.1-2.57,2.92-3.53L100.44,72,102,70.52c.94-.85,2.18-2,3.44-3C108,65.33,110.62,63.34,110.88,63.62Z" transform="translate(0)"/><path class="cls-1" d="M110.91,71.85c.26.28-4,4.86-6.11,7.35s-4.35,5-4.42,5l-4.9,4.56C93.06,91,90.63,93.21,90.34,93S92,90,94,87.44c1-1.3,2.1-2.57,2.92-3.53l1.42-1.63L100,80.8c.93-.84,2.18-1.94,3.44-3C106,75.65,110.64,71.57,110.91,71.85Z" transform="translate(0)"/><path class="cls-1" d="M108.83,57.53c.15.16-1,1.54-2.23,2.92l-2.45,2.79-2.72,2.52c-1.34,1.24-10,13.46-10.13,13.31s8.18-12.62,9.33-14c.57-.72,1.16-1.43,1.62-2l.79-.91.88-.81c.52-.47,1.21-1.08,1.91-1.68C107.23,58.48,108.68,57.38,108.83,57.53Z" transform="translate(0)"/><path class="cls-1" d="M78.91,69.78c.12-.12,2.46,4.1,3.55,5,.54.46,1.08.94,1.48,1.3l.69.64.62.7c.35.42.81,1,1.25,1.52a8.48,8.48,0,0,1,1.59,2.38c-.12.11-1.17-.84-2.21-1.8l-2.12-2-1.9-2.17A27,27,0,0,1,78.91,69.78Z" transform="translate(0)"/><path class="cls-1" d="M80.15,91.72c.13-.13,1.4.83,2.62,1.86.61.52,1.22,1,1.67,1.46l.77.72.69.79c.4.46.91,1.08,1.41,1.7,1,1.26,1.93,2.55,1.79,2.67s-1.32-.94-2.49-2-2.34-2.17-2.37-2.21L82.1,94.28C81.05,93.09,80,91.86,80.15,91.72Z" transform="translate(0)"/><path class="cls-1" d="M78.91,84.23a38.82,38.82,0,0,1,3.86,3.16c.61.52,1.22,1,1.67,1.46l.77.71.69.8c.4.46.91,1.08,1.41,1.7,1,1.25,1.93,2.55,1.79,2.67s-1.32-.94-2.49-2-2.34-2.17-2.37-2.21L82.1,88.08C81.05,86.87,78.78,84.37,78.91,84.23Z" transform="translate(0)"/><path class="cls-1" d="M77.88,54.3a38.82,38.82,0,0,1,3.86,3.16c.61.52,1.21,1,1.66,1.46l.78.71.69.8c.4.46.91,1.08,1.41,1.7,1,1.25,1.93,2.55,1.79,2.67s-1.32-.94-2.49-2L83.2,60.59l-2.13-2.45C80,56.94,77.75,54.44,77.88,54.3Z" transform="translate(0)"/><path class="cls-1" d="M80.85,64.56a22.81,22.81,0,0,1,2.39,2c.38.32.75.65,1,.91l.48.44.43.49c.25.29.57.67.88,1.06.61.77,1.19,1.57,1.1,1.65s-.81-.58-1.54-1.25L84.12,68.5,82.8,67A22.79,22.79,0,0,1,80.85,64.56Z" transform="translate(0)"/><path class="cls-1" d="M77.88,74.94c.13-.13,3.67,4.19,4.89,5.23.61.51,1.22,1,1.67,1.46l.77.71.69.79c.4.47.91,1.08,1.41,1.71,1,1.25,1.93,2.54,1.79,2.67s-1.32-.94-2.49-2l-2.37-2.2L82.1,80.87A49.39,49.39,0,0,1,77.88,74.94Z" transform="translate(0)"/></svg>